<svg width="720" height="168" viewBox="0 0 720 168" fill="none" xmlns="http://www.w3.org/2000/svg">
  <defs>
    <linearGradient id="logo-bg" x1="14" y1="14" x2="114" y2="114" gradientUnits="userSpaceOnUse">
      <stop stop-color="#0F172A"/>
      <stop offset="1" stop-color="#0EA5A4"/>
    </linearGradient>
    <linearGradient id="logo-paper" x1="40" y1="28" x2="86" y2="82" gradientUnits="userSpaceOnUse">
      <stop stop-color="#FFFFFF"/>
      <stop offset="1" stop-color="#E2E8F0"/>
    </linearGradient>
    <linearGradient id="logo-lens" x1="66" y1="64" x2="100" y2="98" gradientUnits="userSpaceOnUse">
      <stop stop-color="#38BDF8"/>
      <stop offset="1" stop-color="#22C55E"/>
    </linearGradient>
    <linearGradient id="logo-word" x1="178" y1="35" x2="178" y2="120" gradientUnits="userSpaceOnUse">
      <stop stop-color="#0F172A"/>
      <stop offset="1" stop-color="#1E293B"/>
    </linearGradient>
    <linearGradient id="logo-engine" x1="472" y1="35" x2="472" y2="120" gradientUnits="userSpaceOnUse">
      <stop stop-color="#334155"/>
      <stop offset="1" stop-color="#475569"/>
    </linearGradient>
  </defs>

  <rect x="12" y="20" width="104" height="104" rx="28" fill="url(#logo-bg)"/>
  <rect x="40" y="34" width="38" height="50" rx="8" fill="url(#logo-paper)"/>
  <path d="M70 34L78 42H70V34Z" fill="#C7D2FE"/>
  <rect x="47" y="45" width="22" height="4" rx="2" fill="#64748B" fill-opacity="0.72"/>
  <rect x="47" y="53" width="24" height="4" rx="2" fill="#64748B" fill-opacity="0.6"/>
  <rect x="47" y="61" width="18" height="4" rx="2" fill="#64748B" fill-opacity="0.56"/>
  <circle cx="74" cy="80" r="12" stroke="url(#logo-lens)" stroke-width="7" fill="none"/>
  <path d="M83 89L93 99" stroke="url(#logo-lens)" stroke-width="7" stroke-linecap="round"/>

  <text x="148" y="104" font-family="Inter, Segoe UI, sans-serif" font-size="82" font-weight="800" letter-spacing="-2" fill="url(#logo-word)">ATS</text>
  <text x="326" y="104" font-family="Inter, Segoe UI, sans-serif" font-size="82" font-weight="700" letter-spacing="-1.2" fill="url(#logo-engine)">Engine</text>
</svg>
