<svg width="128" height="128" viewBox="0 0 128 128" fill="none" xmlns="http://www.w3.org/2000/svg">
  <defs>
    <linearGradient id="mark-bg" x1="14" y1="14" x2="114" y2="114" gradientUnits="userSpaceOnUse">
      <stop stop-color="#0F172A"/>
      <stop offset="1" stop-color="#0EA5A4"/>
    </linearGradient>
    <linearGradient id="paper" x1="40" y1="28" x2="86" y2="82" gradientUnits="userSpaceOnUse">
      <stop stop-color="#FFFFFF"/>
      <stop offset="1" stop-color="#E2E8F0"/>
    </linearGradient>
    <linearGradient id="lens" x1="66" y1="64" x2="100" y2="98" gradientUnits="userSpaceOnUse">
      <stop stop-color="#38BDF8"/>
      <stop offset="1" stop-color="#22C55E"/>
    </linearGradient>
  </defs>

  <rect x="10" y="10" width="108" height="108" rx="30" fill="url(#mark-bg)"/>
  <rect x="38" y="24" width="40" height="54" rx="8" fill="url(#paper)"/>
  <path d="M70 24L78 32H70V24Z" fill="#C7D2FE"/>
  <rect x="45" y="37" width="23" height="4" rx="2" fill="#64748B" fill-opacity="0.72"/>
  <rect x="45" y="46" width="26" height="4" rx="2" fill="#64748B" fill-opacity="0.6"/>
  <rect x="45" y="55" width="19" height="4" rx="2" fill="#64748B" fill-opacity="0.56"/>

  <circle cx="74" cy="76" r="13" stroke="url(#lens)" stroke-width="7" fill="none"/>
  <path d="M84 86L95 97" stroke="url(#lens)" stroke-width="7" stroke-linecap="round"/>

  <path d="M26 50C29 46 32 46 35 50" stroke="#67E8F9" stroke-width="2.5" stroke-linecap="round" opacity="0.72"/>
  <path d="M26 58C30 54 34 54 38 58" stroke="#67E8F9" stroke-width="2.5" stroke-linecap="round" opacity="0.6"/>
</svg>
